<svg width="80" height="32" viewBox="0 0 80 32" fill="none" xmlns="http://www.w3.org/2000/svg">
<path d="M14.6062 4.12394C14.1321 4.6934 13.5324 5.15145 12.8517 5.46407C12.1709 5.77669 11.4266 5.93584 10.6741 5.92969C10.5867 4.47576 11.0906 3.0468 12.0766 1.95216C13.0718 0.834763 14.4717 0.135318 15.9837 0C16.0436 0.741869 15.9527 1.48796 15.7163 2.19558C15.48 2.90321 15.1027 3.55849 14.6062 4.12394ZM15.9837 6.22252C13.8048 6.10051 11.9514 7.41822 10.9746 7.41822C9.99784 7.41822 8.47007 6.29572 6.6167 6.32013C5.4897 6.34213 4.38821 6.65099 3.42162 7.21604C2.45503 7.7811 1.65697 8.58268 1.10669 9.54119C-1.22254 13.4699 0.505598 19.302 2.78474 22.4987C3.88674 24.0604 5.28929 25.8173 6.96734 25.7441C8.64538 25.6709 9.27152 24.6949 11.2752 24.6949C13.2788 24.6949 13.7797 25.7441 15.608 25.7197C17.4364 25.6953 18.5634 24.1336 19.6904 22.5475C20.4686 21.4267 21.076 20.202 21.4937 18.9116C20.4476 18.4701 19.5563 17.741 18.9291 16.8134C18.3018 15.8859 17.9658 14.8003 17.9623 13.6895C17.9803 12.7081 18.2512 11.7468 18.7501 10.894C19.249 10.0412 19.9599 9.32431 20.8175 8.80913C20.2653 8.05159 19.5427 7.42697 18.705 6.98292C17.8673 6.53887 16.9365 6.28714 15.9837 6.24692M28.5065 1.83015V25.6221H32.4136V17.423H37.6481C38.7221 17.4818 39.7969 17.3209 40.8034 16.9509C41.8099 16.5809 42.7258 16.0099 43.4924 15.2746C44.2589 14.5392 44.8591 13.6558 45.2544 12.681C45.6498 11.7062 45.8315 10.6617 45.7879 9.6144C45.8378 8.57603 45.6647 7.53893 45.2797 6.5695C44.8946 5.60006 44.306 4.71963 43.5516 3.98459C42.7971 3.24955 41.8935 2.67607 40.8985 2.30088C39.9035 1.92569 38.839 1.75705 37.7733 1.80575L28.5065 1.83015ZM32.4136 4.92921H36.6713C37.3408 4.83656 38.0231 4.89102 38.6682 5.0886C39.3133 5.28619 39.9049 5.62188 40.3996 6.0711C40.8943 6.52032 41.2795 7.07168 41.5272 7.68478C41.7748 8.29788 41.8785 8.95719 41.8307 9.6144C41.8777 10.2756 41.773 10.9388 41.5242 11.5557C41.2754 12.1726 40.8889 12.7279 40.3925 13.1811C39.8961 13.6344 39.3024 13.9743 38.6544 14.1762C38.0064 14.3781 37.3205 14.4369 36.6462 14.3484H32.4136V4.92921ZM52.6002 25.6221C53.7201 25.6485 54.8267 25.3816 55.8046 24.8494C56.7826 24.3172 57.5961 23.5391 58.1603 22.5963V25.6221H61.6667V13.7383C61.6667 10.2977 58.8616 8.10147 54.5287 8.10147C50.1959 8.10147 47.6162 10.3465 47.4409 13.4211H50.847C51.0419 12.6621 51.5115 11.9971 52.1696 11.5488C52.8277 11.1004 53.6299 10.8987 54.4286 10.9809C56.7327 10.9809 58.0351 12.0546 58.0351 13.9824V15.2757L53.3015 15.5685C48.9185 15.8125 46.5392 17.5695 46.5392 20.6197C46.5642 21.3483 46.7455 22.0638 47.0714 22.72C47.3973 23.3762 47.8607 23.9587 48.4316 24.4299C49.0025 24.9011 49.6684 25.2507 50.3864 25.456C51.1043 25.6613 51.8585 25.7179 52.6002 25.6221ZM53.602 22.8159C51.5984 22.8159 50.3211 21.8642 50.3211 20.3757C50.3211 18.8872 51.5483 17.9355 53.9026 17.9355L58.1102 17.6671V19.0092C58.0991 19.561 57.971 20.1046 57.7339 20.6059C57.4968 21.1071 57.1558 21.5551 56.7324 21.9218C56.309 22.2885 55.8124 22.5659 55.2736 22.7365C54.7349 22.9072 54.1658 22.9675 53.602 22.9135V22.8159ZM66.4253 31.8935C70.107 31.8935 71.8352 30.5269 73.3629 26.3786L80 8.32109H76.168L71.7099 22.3523L67.2518 8.32109H63.2195L69.6312 25.6221L69.2805 26.6714C69.1524 27.3887 68.7568 28.0345 68.1697 28.4849C67.5826 28.9353 66.8454 29.1585 66.0998 29.1116H64.9727V31.9667C65.4561 32.0004 65.941 32.0085 66.4253 31.9911V31.8935Z" fill="black"/>
</svg>
