<svg width="44" height="32" viewBox="0 0 44 32" fill="none" xmlns="http://www.w3.org/2000/svg">
<path d="M9.79232 21.3333C8.80281 21.3333 8.00065 22.1293 8.00065 23.1111C8.00065 24.093 8.80281 24.8889 9.79232 24.8889H15.1673C16.1568 24.8889 16.959 24.093 16.959 23.1111C16.959 22.1293 16.1568 21.3333 15.1673 21.3333H9.79232Z" fill="#202020"/>
<path fill-rule="evenodd" clip-rule="evenodd" d="M0.833984 26.6667C0.833984 29.6122 3.24045 32 6.20898 32H38.459C41.4275 32 43.834 29.6122 43.834 26.6667V5.33333C43.834 2.38781 41.4275 0 38.459 0H6.20898C3.24045 0 0.833984 2.38781 0.833984 5.33333V26.6667ZM4.41732 5.33333C4.41732 4.35149 5.21947 3.55556 6.20898 3.55556H38.459C39.4485 3.55556 40.2506 4.35149 40.2506 5.33333V14.2222H4.41732V10.6667H34.8756C35.8652 10.6667 36.6673 9.87073 36.6673 8.88889C36.6673 7.90705 35.8652 7.11111 34.8756 7.11111H4.41732V5.33333ZM4.41732 17.7778H40.2506V26.6667C40.2506 27.6485 39.4485 28.4444 38.459 28.4444H6.20898C5.21947 28.4444 4.41732 27.6485 4.41732 26.6667V17.7778Z" fill="#202020"/>
</svg>
