<svg width="81" height="32" viewBox="0 0 81 32" fill="none" xmlns="http://www.w3.org/2000/svg">
<path d="M27.5196 15.3292C27.5196 14.3663 27.4432 13.4034 27.2837 12.4576H14.3655V17.8957H21.7635C21.4577 19.6502 20.4706 21.2025 19.0283 22.186V25.7189H23.4451C26.0307 23.2654 27.5196 19.6297 27.5196 15.3292Z" fill="#4285F4"/>
<path d="M14.3655 29.1319C18.0645 29.1319 21.1785 27.8777 23.4451 25.7189L19.0283 22.186C17.7986 23.0461 16.2166 23.5395 14.3622 23.5395C10.7895 23.5395 7.75851 21.0586 6.67507 17.7107H2.12862V21.3498C4.45502 26.1232 9.19091 29.1319 14.3655 29.1319Z" fill="#34A853"/>
<path d="M6.67507 17.7107C6.10344 15.9597 6.10677 14.0579 6.6784 12.3034V8.66767H2.12862C0.181086 12.6598 0.181086 17.3612 2.12862 21.3533L6.67507 17.7107Z" fill="#FBBC04"/>
<path d="M14.3655 6.47802C16.3197 6.44718 18.2041 7.20448 19.6198 8.59571L23.5315 4.56593C21.0522 2.16382 17.7687 0.847969 14.3655 0.885663C9.19091 0.885663 4.45502 3.90115 2.12862 8.66767L6.6784 12.3034C7.76184 8.95552 10.7928 6.47802 14.3655 6.47802Z" fill="#EA4335"/>
<path d="M6.67507 17.7107L2.12862 21.3498C4.45502 26.1198 9.19091 29.1319 14.3655 29.1319L14.3622 23.5395C10.7895 23.5395 7.75851 21.0586 6.67507 17.7107Z" fill="#2D9248"/>
<path d="M2.12862 8.66767C0.181086 12.6598 0.181086 17.3612 2.12862 21.3533L6.6784 17.7141C6.10677 15.9631 6.10677 14.0579 6.6784 12.3034L2.12862 8.66767Z" fill="#DBA403"/>
<path d="M14.3655 0.885663C9.19091 0.885663 4.45502 3.90115 2.12862 8.66767L6.6784 12.3034C7.76184 8.95552 10.7961 6.47802 14.3655 6.47802V0.885663Z" fill="#CC3A2E"/>
<path d="M36.9515 14.6335V24.5846H33.8873V0.00157757H42.0098C43.9706 -0.0395427 45.865 0.724608 47.2708 2.12955C48.6966 3.45225 49.4975 5.34379 49.4676 7.31756C49.5108 9.30504 48.7065 11.2137 47.2708 12.5364C45.8484 13.9345 44.0969 14.6335 42.0098 14.6267L36.9515 14.6335ZM36.9515 3.02734V11.6112H42.0862C43.2262 11.6455 44.3229 11.1829 45.1172 10.3365C46.7258 8.72593 46.7623 6.07024 45.197 4.41173L45.1172 4.32948C44.3362 3.46596 43.2295 2.99308 42.0862 3.02392L36.9515 3.02734ZM56.5266 7.21476C58.7931 7.21476 60.5778 7.83842 61.8873 9.08573C63.1967 10.333 63.8481 12.0464 63.8481 14.2155V24.5846H60.9235V22.2476H60.7905C59.5243 24.17 57.8327 25.1295 55.7289 25.1295C53.9343 25.1295 52.4288 24.5812 51.219 23.4813C50.0459 22.4601 49.3779 20.9489 49.4078 19.3624C49.4078 17.6216 50.0459 16.2372 51.3221 15.2092C52.5983 14.1812 54.2999 13.6672 56.4335 13.6672C58.2514 13.6672 59.7536 14.0099 60.9268 14.6952V13.9722C60.9334 12.8894 60.4682 11.8648 59.6606 11.176C58.8496 10.4256 57.7928 10.0109 56.7027 10.0246C54.9911 10.0246 53.6385 10.7717 52.6415 12.2554L49.9462 10.5044C51.4218 8.3113 53.6186 7.21476 56.5266 7.21476ZM52.5617 19.4343C52.5584 20.2499 52.9373 21.0175 53.5753 21.4938C54.2533 22.042 55.0942 22.3333 55.9549 22.3162C57.2477 22.3127 58.4874 21.7816 59.4013 20.8393C60.415 19.8524 60.9235 18.701 60.9235 17.3749C59.9696 16.5902 58.6369 16.1961 56.9254 16.1961C55.6824 16.1961 54.6422 16.5045 53.8113 17.1247C52.9805 17.7553 52.5617 18.5194 52.5617 19.4343ZM80.668 7.76303L70.4418 32H67.2812L71.0765 23.5189L64.3499 7.76303H67.6767L72.5355 19.8455H72.602L77.3312 7.76303H80.668Z" fill="#5F6368"/>
<path d="M36.9515 17.7107H33.8873V24.5812H36.9515V17.7107ZM63.8514 17.7107H60.9168C60.8371 18.8963 60.3286 19.9381 59.4013 20.8393C58.4874 21.7816 57.2477 22.3127 55.9549 22.3162C55.9283 22.3162 55.9084 22.3162 55.8851 22.3162C55.051 22.3162 54.24 22.0249 53.5787 21.4938C52.9373 21.0175 52.5584 20.2499 52.5617 19.4343C52.5617 18.7867 52.7744 18.2144 53.1932 17.7107H49.6271C49.4809 18.2213 49.4044 18.7696 49.4044 19.3624C49.3745 20.9489 50.0425 22.4601 51.2157 23.4813C52.4254 24.5812 53.9343 25.1295 55.7289 25.1295C57.8327 25.1295 59.5243 24.17 60.7905 22.2476H60.9235V24.5846H63.8481L63.8514 17.7107ZM76.4705 17.7107H73.4395L72.6053 19.8455H72.5355L71.6814 17.7107H68.5973L71.0765 23.5189L67.2812 32H70.4418L76.4705 17.7107Z" fill="#53565B"/>
</svg>
