<svg width="28" height="32" viewBox="0 0 28 32" fill="none" xmlns="http://www.w3.org/2000/svg">
<path fill-rule="evenodd" clip-rule="evenodd" d="M12.2522 17.5929L16.327 20.1707V24.9493L12.2337 32L12.2522 17.5929Z" fill="#62B22F"/>
<path fill-rule="evenodd" clip-rule="evenodd" d="M8.8726 15.5573L12.94 17.824L0.867264 24.8729L4.80707 17.9787L8.8726 15.5573Z" fill="#974995"/>
<path fill-rule="evenodd" clip-rule="evenodd" d="M27.834 9.04356L20.0653 9.008L16.3233 6.84267L12.2559 0L27.834 9.04356Z" fill="#EE7024"/>
<path fill-rule="evenodd" clip-rule="evenodd" d="M12.2559 0L16.3233 6.84267L16.3307 16.2738L12.2319 15.0684L12.2559 0Z" fill="#FBB61B"/>
<path fill-rule="evenodd" clip-rule="evenodd" d="M0.833984 6.88533L4.82002 13.8542L4.80707 17.9787L0.867264 24.8729L0.833984 6.88533Z" fill="#5A58A3"/>
<path fill-rule="evenodd" clip-rule="evenodd" d="M0.833984 6.88533L27.7711 22.7342L20.0523 22.7858L4.82002 13.8524L0.833984 6.88533Z" fill="#2188CB"/>
<path fill-rule="evenodd" clip-rule="evenodd" d="M20.0653 9.00622L27.834 9.04356L16.3344 15.8418L16.3233 11.1982L20.0653 9.00622Z" fill="#DA0954"/>
<path fill-rule="evenodd" clip-rule="evenodd" d="M16.327 24.9493L20.0523 22.7858L27.773 22.7324L12.2337 32L16.327 24.9493Z" fill="#037F37"/>
</svg>
